<svg width="72" height="70" viewBox="0 0 31 30" fill="none" xmlns="http://www.w3.org/2000/svg">
<rect width="31" height="30" rx="15" fill="white"/>
<path d="M9.329 19L5.884 10.095L5.104 9.926V9.796H8.419V9.926L7.496 10.082L10.46 17.791H10.603L12.202 13.527C12.3233 13.1977 12.4187 12.8813 12.488 12.578C12.5573 12.266 12.592 11.9887 12.592 11.746C12.592 11.2693 12.4663 10.8793 12.215 10.576C11.9723 10.2727 11.5823 10.056 11.045 9.926V9.796H14.555V9.926L13.749 10.095L10.317 19H9.329ZM15.9091 8.34H16.1821V20.82H15.9091V8.34ZM18.1307 19V18.87L18.9237 18.675V10.121L18.1307 9.926V9.796H25.4627L25.0207 13.046H24.8517L24.4357 10.953C24.3577 10.615 24.2234 10.3723 24.0327 10.225C23.842 10.069 23.608 9.991 23.3307 9.991H20.4187V14.229H22.0697C22.191 14.229 22.3037 14.1987 22.4077 14.138C22.5117 14.0687 22.607 13.9863 22.6937 13.891C22.815 13.7523 22.919 13.5573 23.0057 13.306C23.101 13.0547 23.153 12.7817 23.1617 12.487H23.2917V15.724H23.1617L22.2387 14.398H20.4187V18.701L21.2117 18.87V19H18.1307Z" fill="#172635"/>
</svg>
